<svg xmlns="http://www.w3.org/2000/svg" viewBox="0 0 800 600" width="800" height="600">
  <!-- Background Elements -->
  <circle cx="400" cy="300" r="250" fill="#f8f9fa" opacity="0.7"/>
  <circle cx="200" cy="150" r="50" fill="#e9ecef" opacity="0.5"/>
  <circle cx="600" cy="450" r="70" fill="#e9ecef" opacity="0.5"/>
  
  <!-- Support Agent -->
  <g transform="translate(320, 180)">
    <!-- Head -->
    <circle cx="80" cy="60" r="50" fill="#0a326e"/>
    <circle cx="60" cy="50" r="5" fill="white"/>
    <circle cx="100" cy="50" r="5" fill="white"/>
    <path d="M70 70 Q 80 80 90 70" stroke="white" stroke-width="2" fill="none"/>
    
    <!-- Headset -->
    <path d="M40 40 Q 30 20 30 60 Q 30 70 40 70" stroke="#1a4d95" stroke-width="8" fill="none"/>
    <path d="M120 40 Q 130 20 130 60 Q 130 70 120 70" stroke="#1a4d95" stroke-width="8" fill="none"/>
    <path d="M30 40 Q 80 0 130 40" stroke="#1a4d95" stroke-width="8" fill="none"/>
    
    <!-- Body -->
    <rect x="50" y="110" width="60" height="80" rx="10" fill="#1a4d95"/>
    <rect x="40" y="190" width="80" height="20" rx="5" fill="#0a326e"/>
  </g>
  
  <!-- Computer/Desk -->
  <g transform="translate(200, 300)">
    <!-- Monitor -->
    <rect x="100" y="0" width="200" height="120" rx="5" fill="#dee2e6"/>
    <rect x="110" y="10" width="180" height="100" rx="2" fill="#ffffff"/>
    
    <!-- Screen Content -->
    <line x1="120" y1="30" x2="280" y2="30" stroke="#0a326e" stroke-width="2"/>
    <line x1="120" y1="50" x2="260" y2="50" stroke="#0a326e" stroke-width="2"/>
    <line x1="120" y1="70" x2="240" y2="70" stroke="#0a326e" stroke-width="2"/>
    <line x1="120" y1="90" x2="220" y2="90" stroke="#0a326e" stroke-width="2"/>
    
    <!-- Stand -->
    <rect x="190" y="120" width="20" height="20" fill="#adb5bd"/>
    
    <!-- Desk -->
    <rect x="50" y="140" width="300" height="20" rx="2" fill="#6c757d"/>
    <rect x="60" y="160" width="10" height="60" fill="#6c757d"/>
    <rect x="330" y="160" width="10" height="60" fill="#6c757d"/>
  </g>
  
  <!-- Tickets/Support Elements -->
  <g transform="translate(500, 200)">
    <!-- Ticket Stack -->
    <rect x="0" y="0" width="80" height="60" rx="5" fill="#ffffff" stroke="#0a326e" stroke-width="2"/>
    <rect x="5" y="5" width="70" height="10" rx="2" fill="#e9ecef"/>
    <rect x="5" y="20" width="50" height="5" rx="1" fill="#e9ecef"/>
    <rect x="5" y="30" width="60" height="5" rx="1" fill="#e9ecef"/>
    <rect x="5" y="40" width="40" height="5" rx="1" fill="#e9ecef"/>
    
    <!-- Second Ticket -->
    <rect x="10" y="-10" width="80" height="60" rx="5" fill="#ffffff" stroke="#0a326e" stroke-width="2"/>
    <rect x="15" y="-5" width="70" height="10" rx="2" fill="#e9ecef"/>
    <rect x="15" y="10" width="50" height="5" rx="1" fill="#e9ecef"/>
    <rect x="15" y="20" width="60" height="5" rx="1" fill="#e9ecef"/>
    <rect x="15" y="30" width="40" height="5" rx="1" fill="#e9ecef"/>
    
    <!-- Third Ticket -->
    <rect x="20" y="-20" width="80" height="60" rx="5" fill="#ffffff" stroke="#0a326e" stroke-width="2"/>
    <rect x="25" y="-15" width="70" height="10" rx="2" fill="#e9ecef"/>
    <rect x="25" y="0" width="50" height="5" rx="1" fill="#e9ecef"/>
    <rect x="25" y="10" width="60" height="5" rx="1" fill="#e9ecef"/>
    <rect x="25" y="20" width="40" height="5" rx="1" fill="#e9ecef"/>
  </g>
  
  <!-- Chat Bubbles -->
  <g transform="translate(150, 200)">
    <!-- Bubble 1 -->
    <path d="M0 0 L80 0 Q100 0 100 20 L100 50 Q100 70 80 70 L20 70 L0 90 L0 0 Z" fill="#0a326e"/>
    <line x1="20" y1="20" x2="80" y2="20" stroke="white" stroke-width="2"/>
    <line x1="20" y1="35" x2="70" y2="35" stroke="white" stroke-width="2"/>
    <line x1="20" y1="50" x2="60" y2="50" stroke="white" stroke-width="2"/>
    
    <!-- Bubble 2 -->
    <path d="M150 100 L230 100 Q250 100 250 120 L250 150 Q250 170 230 170 L170 170 L150 190 L150 100 Z" fill="#1a4d95"/>
    <line x1="170" y1="120" x2="230" y2="120" stroke="white" stroke-width="2"/>
    <line x1="170" y1="135" x2="220" y2="135" stroke="white" stroke-width="2"/>
    <line x1="170" y1="150" x2="210" y2="150" stroke="white" stroke-width="2"/>
  </g>
  
  <!-- Decorative Elements -->
  <g>
    <!-- Stars/Sparkles -->
    <path d="M100 100 L110 120 L130 120 L115 135 L120 155 L100 145 L80 155 L85 135 L70 120 L90 120 Z" fill="#1a4d95" opacity="0.3"/>
    <path d="M650 200 L660 220 L680 220 L665 235 L670 255 L650 245 L630 255 L635 235 L620 220 L640 220 Z" fill="#1a4d95" opacity="0.3"/>
    <path d="M200 500 L210 520 L230 520 L215 535 L220 555 L200 545 L180 555 L185 535 L170 520 L190 520 Z" fill="#1a4d95" opacity="0.3"/>
    
    <!-- Circles -->
    <circle cx="700" cy="100" r="20" fill="#0a326e" opacity="0.2"/>
    <circle cx="650" cy="150" r="10" fill="#0a326e" opacity="0.2"/>
    <circle cx="720" cy="130" r="5" fill="#0a326e" opacity="0.2"/>
    
    <circle cx="100" cy="400" r="20" fill="#0a326e" opacity="0.2"/>
    <circle cx="150" cy="450" r="10" fill="#0a326e" opacity="0.2"/>
    <circle cx="80" cy="430" r="5" fill="#0a326e" opacity="0.2"/>
  </g>
</svg>
